# xmcd CD database file
#
# Track frame offsets:
#	150
#	22114
#	40114
#	64007
#	78962
#	111718
#	141813
#	165730
#	184960
#	201179
#
# Disc length: 3461 seconds
#
# Revision: 0
# Processed by: cddbd v1.5.2PL0 Copyright (c) Steve Scherf et al.
# Submitted via: CDex 1.51
#
DISCID=8e0d830a
DTITLE=Alex Welsh with Bud Freeman - Alex Welsh with Bud Freeman
DYEAR=1966
DGENRE=Jazz
TTITLE0=I Got Rhythm
TTITLE1=Dinah
TTITLE2=I Can't Give You Anything But Love
TTITLE3=Just One of Those Things
TTITLE4=I Want a Little Girl
TTITLE5=Sunday
TTITLE6=Satin Doll
TTITLE7=Sweet Sue
TTITLE8='S Wonderful
TTITLE9=Royal Garden Blues
EXTD=YEAR: 1966
EXTT0=
EXTT1=
EXTT2=
EXTT3=
EXTT4=
EXTT5=
EXTT6=
EXTT7=
EXTT8=
EXTT9=
PLAYORDER=
